<svg width="100" height="100" viewBox="0 0 100 100" fill="none" xmlns="http://www.w3.org/2000/svg">
<path d="M100 50C100 77.6139 77.6139 100 50 100C22.3861 100 0 77.6139 0 50C0 22.3861 22.3861 0 50 0C77.6139 0 100 22.3861 100 50Z" fill="#FFCC4D"/>
<path d="M61.1112 75C61.1112 82.675 56.1362 83.3333 50.0001 83.3333C43.8612 83.3333 38.889 82.675 38.889 75C38.889 67.3306 43.8612 58.3333 50.0001 58.3333C56.1362 58.3333 61.1112 67.3306 61.1112 75ZM83.3335 41.6667C82.989 41.6667 82.639 41.6028 82.3029 41.4667C67.7779 35.6583 61.8251 26.9083 61.5779 26.5389C60.7251 25.2611 61.0696 23.5361 62.3473 22.6861C63.6223 21.8361 65.339 22.175 66.1946 23.4472C66.2473 23.5222 71.5557 31.1833 84.364 36.3056C85.789 36.8778 86.4835 38.4917 85.914 39.9167C85.4779 41.0056 84.4335 41.6667 83.3335 41.6667ZM16.6668 41.6667C15.564 41.6667 14.5223 41.0056 14.0862 39.9194C13.5168 38.4944 14.2085 36.8778 15.6335 36.3083C28.4446 31.1861 33.7529 23.525 33.8057 23.45C34.6612 22.1833 36.3862 21.8472 37.6585 22.7C38.9279 23.5556 39.2723 25.2694 38.4223 26.5417C38.1751 26.9111 32.2223 35.6611 17.7001 41.4694C17.3612 41.6028 17.0112 41.6667 16.6668 41.6667Z" fill="#664500"/>
<path d="M66.6666 44.4445H77.7777V97.2222L66.6666 97.0945V44.4445ZM22.2222 97.2222L33.3333 97.0945V44.4445H22.2222V97.2222Z" fill="#5DADEC"/>
<path d="M41.6637 50C41.247 50 40.822 49.9056 40.4248 49.7084C30.6692 44.8306 20.7859 49.6584 20.6887 49.7084C19.3137 50.4 17.647 49.8361 16.9609 48.4667C16.2748 47.0945 16.8303 45.425 18.2025 44.7389C18.7081 44.4889 30.697 38.6361 42.9109 44.7389C44.2831 45.425 44.8387 47.0945 44.1525 48.4667C43.6637 49.4389 42.6831 50 41.6637 50ZM80.5525 50C80.1359 50 79.7109 49.9056 79.3137 49.7084C69.5553 44.8306 59.6748 49.6584 59.5775 49.7084C58.2053 50.3972 56.5387 49.8389 55.8498 48.4667C55.1637 47.0945 55.7192 45.425 57.0914 44.7389C57.597 44.4889 69.5942 38.6389 81.7998 44.7389C83.172 45.425 83.7275 47.0945 83.0414 48.4667C82.5525 49.4389 81.572 50 80.5525 50Z" fill="#664500"/>
<path d="M50 100C77.6142 100 100 97.5127 100 94.4445C100 91.3762 77.6142 88.8889 50 88.8889C22.3858 88.8889 0 91.3762 0 94.4445C0 97.5127 22.3858 100 50 100Z" fill="#5DADEC"/>
<path d="M50 80.5556C54.6023 80.5556 58.3333 78.0683 58.3333 75C58.3333 71.9318 54.6023 69.4445 50 69.4445C45.3976 69.4445 41.6666 71.9318 41.6666 75C41.6666 78.0683 45.3976 80.5556 50 80.5556Z" fill="#E75A70"/>
</svg>
