<svg width="41" height="67" viewBox="0 0 41 67" fill="none" xmlns="http://www.w3.org/2000/svg">
<g clip-path="url(#clip0_1013_3798)">
<path d="M25.5214 4.43555C21.7874 8.64672 20.9321 15.1583 20.662 20.6022C20.5022 23.858 24.0562 24.4457 25.8028 22.6406C26.6356 22.9576 27.5764 22.907 28.3304 22.2576C32.1297 18.993 36.2868 14.5617 38.6817 9.97853C40.2617 6.95609 40.2189 1.99426 36.8225 0.596412C32.6586 -1.12063 28.4857 1.09392 25.5192 4.43555H25.5214Z" fill="#006E2F"/>
<path d="M8.79146 1.40229C2.71663 1.85577 -0.585243 5.91064 0.0854865 11.7288C0.443359 14.8327 3.12402 18.0268 5.14296 20.2524C8.80947 24.2918 16.5949 28.6395 17.9431 33.9821C18.7759 37.2753 22.699 37.3018 24.5603 35.4196C26.0053 35.1599 27.2838 34.167 27.5224 32.3113C28.5555 24.3381 28.8863 17.1067 24.5941 10.0029C21.4633 4.81877 15.0193 0.93561 8.79146 1.40229Z" fill="#41A259"/>
<path d="M2.08867 48.0443C2.67387 51.6919 3.38962 55.3373 4.77384 58.8463C5.87672 61.4439 7.64582 63.7707 10.1982 65.0408C13.2907 66.5664 16.7659 66.912 20.1038 67C23.9751 66.9494 27.9748 66.6346 31.4274 65.283C32.7554 64.7437 34.0788 63.9424 35.1345 63.0134C36.055 61.9568 36.7055 60.7724 37.0904 59.5925C37.4685 58.0208 37.7138 56.4512 37.9592 54.8817C38.2022 53.0501 38.4408 51.0887 38.6817 49.1274C39.4289 45.2002 40.309 41.273 40.9212 37.348C41.153 34.8649 40.8514 30.81 40.2842 28.3357L0.936279 29.192C0.943032 29.7137 1.20187 41.918 2.08867 48.0421V48.0443Z" fill="#E6715F"/>
<path d="M1.02856 29.1919H0.936279C0.936279 29.2337 0.93853 29.3416 0.943032 29.5067C0.961038 29.401 0.990298 29.2954 1.02856 29.1919Z" fill="#FFDAD6"/>
<path d="M6.26609 40.1039C5.96449 39.8309 5.58411 39.3995 5.13395 39.4589C4.92913 39.4853 4.68605 39.646 4.6748 39.8728C4.64779 40.4209 5.23074 40.9382 5.55034 41.3301C5.73041 41.548 5.93523 41.7637 6.18731 41.9046C6.32236 41.9795 6.49792 42.0345 6.61721 42.1291C7.35771 42.7213 8.33229 41.6867 7.6188 41.0483C7.45675 40.903 7.27443 40.8017 7.07412 40.7159C6.75 40.575 6.52718 40.3417 6.26609 40.1039Z" fill="#FFDAD6"/>
<path d="M13.7634 36.228C13.7634 36.228 13.7773 36.2211 13.7842 36.2165C13.7911 36.2119 13.7888 36.2119 13.7634 36.228Z" fill="#FFDAD6"/>
<path d="M13.7836 36.2186C13.7634 36.2318 13.6598 36.2935 13.6373 36.3067C13.5608 36.3551 13.4798 36.3991 13.401 36.4454C12.8721 36.7514 12.2531 37.0177 12.1631 37.6825C12.1023 38.1272 12.5817 38.3253 12.9441 38.2042C13.446 38.0369 14.1708 37.8872 14.6367 37.5967C15.528 37.0375 14.6975 35.7343 13.7859 36.2186H13.7836Z" fill="#FFDAD6"/>
<path d="M6.20084 35.7189C6.22785 35.7717 6.25261 35.8246 6.27287 35.8796C6.36965 36.1041 6.58122 36.3309 6.80405 36.4409C7.45677 36.7711 8.16576 36.0227 7.77638 35.4107C7.62108 35.2764 7.59182 35.2324 7.6886 35.2764C7.66384 35.2324 7.63458 35.1906 7.60532 35.1509C7.5423 35.0871 7.47928 35.0233 7.41626 34.9616C7.29922 34.845 7.08314 34.6733 6.91659 34.6204C6.71627 34.5588 6.53621 34.4817 6.33364 34.5984C6.16483 34.6953 6.02528 34.944 6.11306 35.1377C6.08605 35.3425 6.11531 35.5384 6.20309 35.7211L6.20084 35.7189Z" fill="#FFDAD6"/>
<path d="M8.40881 47.0161C7.7966 47.2164 7.18214 47.3991 6.57443 47.6259C6.00949 47.835 5.24198 48.2819 4.94487 48.786C4.82783 48.9841 4.92012 49.2196 5.10918 49.3341C5.72364 49.7061 6.43488 49.1668 7.02458 49.0171C7.66155 48.8542 8.31428 48.7419 8.94449 48.5592C9.97309 48.2598 9.42841 46.6837 8.40881 47.0183V47.0161Z" fill="#FFDAD6"/>
<path d="M15.7103 44.3747C15.3142 44.1787 14.9923 43.8485 14.6705 43.558C14.2181 43.1485 13.8039 42.4221 13.0814 42.5718C12.7843 42.6334 12.4895 42.9196 12.6448 43.2454C12.8091 43.591 12.9824 43.9278 13.1467 44.2734C13.2997 44.5992 13.5833 44.8589 13.8309 45.1165C14.0425 45.3344 14.2653 45.5414 14.4949 45.7417C14.6817 45.9046 14.9338 45.9618 15.1319 46.0961C15.5438 46.3757 16.0727 46.4021 16.4261 46.0036C16.7277 45.6646 16.7434 45.0174 16.3315 44.7379C16.129 44.6014 15.9264 44.4803 15.7081 44.3725L15.7103 44.3747Z" fill="#FFDAD6"/>
<path d="M10.3738 52.4996C9.77733 52.6581 9.34518 53.1049 8.93329 53.5298C8.66995 53.8028 8.30983 54.265 8.44487 54.6789C8.55966 55.0355 8.99406 55.1786 9.31367 54.9849C9.53199 54.8528 9.73681 54.7603 9.94613 54.6151C10.0722 54.527 10.1892 54.4169 10.3108 54.3223C10.5066 54.1704 10.7204 54.0515 10.9522 53.9569C11.8098 53.609 11.2403 52.2706 10.3738 52.4996Z" fill="#FFDAD6"/>
<path d="M17.5694 50.7671C17.1778 51.4407 16.8267 53.7411 18.2199 53.5738C19.5164 53.4153 18.8659 51.3703 18.4517 50.6945C18.2402 50.3467 17.745 50.4699 17.5694 50.7693V50.7671Z" fill="#FFDAD6"/>
<path d="M1.55072 42.7697C1.57773 43.1417 1.60699 43.5072 1.6385 43.8682C1.93335 44.1654 2.379 44.3635 2.72112 44.5836C3.00697 44.7663 3.33333 44.8324 3.63718 44.6298C3.96805 44.4075 4.07833 43.9276 3.83525 43.6018C3.59892 43.287 3.26356 43.1704 2.88993 43.0713C2.8179 43.0515 2.61308 42.9436 2.79765 43.0625C2.47128 42.8534 2.09316 42.7015 1.70377 42.7257C1.65426 42.7301 1.60249 42.7455 1.55297 42.7697H1.55072Z" fill="#FFDAD6"/>
<path d="M4.35297 54.426C4.3057 54.4524 4.26069 54.4876 4.21792 54.5206C3.91857 54.754 3.74751 55.0599 3.62372 55.4078C3.69349 55.6543 3.76552 55.9031 3.83979 56.1474C3.86905 56.1694 3.90056 56.1914 3.93432 56.209C3.97484 56.2245 4.0176 56.2377 4.05812 56.2509C4.14815 56.2707 4.23818 56.2641 4.32596 56.2355C4.41374 56.2707 4.98768 55.7952 5.11823 55.6763C5.12273 55.6719 5.12723 55.6697 5.13173 55.6653C5.15424 55.6499 5.1745 55.6367 5.19926 55.6235C5.55038 55.4276 5.64716 54.9499 5.44009 54.6241C5.21501 54.2675 4.77836 54.208 4.41824 54.3885C4.80087 54.1948 4.461 54.3621 4.35522 54.4216L4.35297 54.426Z" fill="#FFDAD6"/>
<path d="M9.24159 61.884C9.14931 61.9523 9.06603 62.0337 8.985 62.1108C8.80269 62.2847 8.61362 62.4652 8.46732 62.6699C8.28051 62.9319 8.05993 63.1938 7.93164 63.4668C8.24225 63.753 8.57086 64.0193 8.91748 64.2681C9.40139 63.8719 9.79077 63.3633 10.3085 63.0111C11.1322 62.4498 10.1441 61.2346 9.33612 61.8202C9.721 61.5428 9.33612 61.8202 9.24384 61.8862L9.24159 61.884Z" fill="#FFDAD6"/>
<path d="M15.7936 57.8886C15.3435 57.5694 14.8933 57.1314 14.3486 57.0015C14.1168 56.9465 13.8152 57.0345 13.7071 57.2613C13.6486 57.3867 13.6554 57.3669 13.6351 57.5034C13.6216 57.6003 13.6486 57.7412 13.7094 57.8204C13.9457 58.1308 14.1415 58.4698 14.3689 58.7846C14.7402 59.2975 15.3029 59.8324 15.9287 60.0372C16.4058 60.1934 16.9257 60.0834 17.1553 59.6013C17.3511 59.1918 17.1846 58.5622 16.7097 58.4016C16.3721 58.2893 16.0795 58.0912 15.7936 57.8864V57.8886Z" fill="#FFDAD6"/>
<path d="M17.6145 64.059C17.7518 64.0083 17.9611 63.9291 17.6145 64.059V64.059Z" fill="#FFDAD6"/>
<path d="M17.6145 64.0589C17.5965 64.0655 17.5807 64.0721 17.5672 64.0765C17.4727 64.1117 17.3872 64.1668 17.2994 64.213C17.1373 64.2989 16.9933 64.442 16.8605 64.5608C16.4103 64.9659 16.1605 65.5712 16.1312 66.159C16.12 66.3747 16.3271 66.5707 16.5274 66.6125C16.6174 66.6301 16.7074 66.6257 16.7952 66.5971C16.8335 66.5773 16.874 66.5596 16.9123 66.5398C16.9843 66.4914 17.0428 66.4298 17.0811 66.3527C17.2049 66.2911 17.3399 66.115 17.4344 66.0247C17.5447 65.9168 17.6505 65.809 17.7675 65.7077C17.9251 65.5712 18.0309 65.4942 18.1592 65.4546C19.0955 65.164 18.5373 63.7111 17.6145 64.0567V64.0589Z" fill="#FFDAD6"/>
<path d="M26.8831 59.161C26.5703 58.7647 25.8163 58.9519 25.7938 59.4758C25.7713 60.0503 25.9198 60.5875 26.1156 61.1312C26.2777 61.5825 26.5928 62.0227 27.0947 62.1108C27.6191 62.2032 28.3371 61.7542 28.0895 61.1488C27.9522 60.8142 27.7137 60.4994 27.5269 60.189C27.3153 59.839 27.1375 59.4846 26.8831 59.161Z" fill="#FFDAD6"/>
<path d="M25.8523 52.5746C25.4629 52.9378 24.9002 53.0303 24.4838 53.3473C23.8626 53.8206 23.1987 54.3203 22.9533 55.0841C22.8138 55.52 23.2729 55.8348 23.6533 55.5926C24.2138 55.236 24.8282 54.7781 25.4719 54.5756C25.9694 54.4193 26.4983 54.23 26.9034 53.8976C27.7587 53.1932 26.6401 51.8415 25.8523 52.5746Z" fill="#FFDAD6"/>
<path d="M24.3488 45.8714C24.2452 46.228 24.5603 46.5692 24.9205 46.567C25.4156 46.5626 25.6767 46.3359 26.0886 46.2544C26.2394 46.2258 26.3812 46.2126 26.505 46.2016C26.9867 46.1532 27.3963 45.845 27.3986 45.3343C27.3986 44.894 26.9934 44.4163 26.5118 44.4603C25.6362 44.5396 24.6099 44.9799 24.351 45.8714H24.3488Z" fill="#FFDAD6"/>
<path d="M20.9456 39.3973C20.9163 39.0539 20.5247 38.7963 20.2006 38.7831C19.7482 38.7655 19.4151 39.1045 19.3701 39.5272C19.2845 40.3307 19.1562 41.1232 19.1788 41.9354C19.2103 43.0581 21.0379 43.0691 20.9524 41.9641C20.8871 41.1077 21.0199 40.2536 20.9456 39.3973Z" fill="#FFDAD6"/>
<path d="M22.3253 33.1807C22.2218 33.0156 22.1317 32.8395 22.044 32.6656C21.8932 32.364 21.7424 32.0338 21.5668 31.7212C21.0919 31.752 20.6215 31.7828 20.1511 31.8158C20.1556 31.8335 20.1578 31.8489 20.1623 31.8665C20.2186 32.113 20.3176 32.3552 20.3941 32.5951C20.4752 32.8571 20.5787 33.1234 20.6777 33.381C20.8803 33.9137 21.1144 34.5125 21.6388 34.8141C22.4378 35.2742 23.2549 34.2153 22.6247 33.5703C22.5796 33.5263 22.5661 33.5131 22.5841 33.5351C22.4603 33.4008 22.4288 33.3656 22.4919 33.4272C22.4311 33.3502 22.3793 33.2643 22.3253 33.1807Z" fill="#FFDAD6"/>
<path d="M29.9239 36.7468C29.3815 36.7799 28.9223 37.022 28.4519 37.2686C28.1233 37.4403 27.7744 37.5481 27.4661 37.7551C27.2185 37.9224 27.259 38.2636 27.4616 38.4419C28.2066 39.0913 29.2824 38.3978 30.1332 38.3934C30.5969 38.3934 30.9232 37.8761 30.8715 37.4667C30.8107 36.9978 30.3876 36.7182 29.9239 36.7446V36.7468Z" fill="#FFDAD6"/>
<path d="M29.8834 32.397C29.8092 33.0112 29.6854 33.6782 29.978 34.2528C30.1378 34.5676 30.5834 34.7107 30.912 34.6072C31.684 34.365 31.4095 33.3832 31.4117 32.7471C31.4117 32.2297 31.4747 31.6926 31.441 31.1709C30.9841 31.1973 30.5272 31.2259 30.0702 31.2523C30.059 31.3206 30.0477 31.3866 30.0342 31.4527C29.9847 31.6816 29.9329 31.9083 29.9194 32.1417C29.9284 31.9568 29.8879 32.3464 29.8812 32.397H29.8834Z" fill="#FFDAD6"/>
<path d="M39.5618 33.8324C38.6952 33.9227 37.8467 33.7928 37.0476 34.211C36.7235 34.3805 36.7798 34.9573 37.1242 35.074C37.9952 35.3645 38.9068 35.5406 39.8251 35.6111C40.0277 35.6265 40.2302 35.6485 40.4305 35.6793C40.426 35.6793 40.4936 35.6947 40.5408 35.7057C40.6646 35.8202 40.8267 35.8929 40.9955 35.9193C41.0067 35.2853 40.9955 34.6051 40.964 33.9072C40.8154 33.8808 40.6624 33.8654 40.5183 33.8522C40.201 33.8258 39.8769 33.8016 39.5618 33.8346V33.8324Z" fill="#FFDAD6"/>
<path d="M33.8943 43.4807C33.7975 43.2342 33.5117 43.0889 33.2506 43.1241C32.9287 43.166 32.8274 43.3839 32.7261 43.6414C32.4538 44.3371 32.8567 45.2374 33.2483 45.8208C33.4756 46.1598 33.784 46.3117 34.1936 46.3469C34.7518 46.3975 35.2628 45.7151 34.9431 45.222C34.7586 44.9358 34.5268 44.7003 34.3557 44.4075C34.1801 44.1059 34.0203 43.8065 33.8943 43.4807Z" fill="#FFDAD6"/>
<path d="M40.4305 40.2251C40.1762 40.126 39.8858 40.0864 39.618 40.0688C39.0936 40.0335 38.3553 40.0203 37.9097 40.3219C37.6418 40.5024 37.4865 40.9647 37.7994 41.1958C38.3036 41.5679 39.0418 41.6493 39.636 41.8342C39.663 41.843 39.9376 41.9465 39.7328 41.8629C39.8611 41.9179 39.9781 41.9509 40.0997 41.9685C40.2122 41.3874 40.3225 40.8062 40.4283 40.2273L40.4305 40.2251Z" fill="#FFDAD6"/>
<path d="M33.3023 50.8002C33.2978 50.5206 33.1763 50.3049 33.0052 50.0936C32.8522 49.9065 32.465 49.9527 32.3683 50.175C32.1949 50.5625 31.9789 50.9279 31.8236 51.3219C31.711 51.6081 31.6953 51.8965 31.6615 52.2003C31.603 52.7396 31.4117 53.2283 31.531 53.7698C31.7155 54.5997 33.012 54.4016 33.1425 53.6443C33.21 53.2525 33.2573 52.8364 33.2438 52.4402C33.2303 52.0418 33.1853 51.837 33.2618 51.443C33.3046 51.2295 33.3068 51.0181 33.3046 50.8024L33.3023 50.8002Z" fill="#FFDAD6"/>
<path d="M37.0139 50.1684C36.4489 49.858 35.9087 50.536 36.3161 51.0093C36.8091 51.5838 37.5923 51.5332 38.254 51.7401C38.2878 51.7511 38.3216 51.76 38.3553 51.771C38.4229 51.2206 38.4926 50.6659 38.5602 50.1067C38.4386 50.0935 38.3148 50.1023 38.1955 50.0979C37.8512 50.0847 37.3177 50.3357 37.0139 50.1684Z" fill="#FFDAD6"/>
<path d="M35.3438 59.9424C35.2088 59.7884 35.1322 59.577 35.0039 59.4119C34.7609 59.0993 34.34 59.1434 34.1329 59.4648C33.739 60.0789 33.9798 60.8186 34.3535 61.3425C34.6348 61.7387 35.0039 62.08 35.3483 62.4256C35.4001 62.4784 35.4563 62.5202 35.5126 62.5554C35.902 62.0513 36.2351 61.523 36.5097 60.9859C36.3972 60.8648 36.2599 60.7525 36.1406 60.6447C35.8817 60.4069 35.5779 60.2132 35.3438 59.9469V59.9424Z" fill="#FFDAD6"/>
<path d="M26.5275 65.3225C26.442 65.7628 26.3925 66.1525 26.3992 66.5619C26.9417 66.4827 27.4796 66.388 28.0108 66.2801C28.004 66.2009 27.9995 66.1194 27.9838 66.0336C27.9253 65.732 27.8285 65.4877 27.7024 65.2103C27.4864 64.7348 26.6311 64.7942 26.5275 65.3248V65.3225Z" fill="#FFDAD6"/>
</g>
<defs>
<clipPath id="clip0_1013_3798">
<rect width="41" height="67" fill="white"/>
</clipPath>
</defs>
</svg>
