<svg width="39" height="39" viewBox="0 0 39 39" fill="none" xmlns="http://www.w3.org/2000/svg">
<rect width="39" height="39" rx="19.5" fill="#FFDFA0"/>
<mask id="mask0_1629_841" style="mask-type:alpha" maskUnits="userSpaceOnUse" x="8" y="7" width="24" height="24">
<rect x="8" y="7" width="24" height="24" fill="#D9D9D9"/>
</mask>
<g mask="url(#mask0_1629_841)">
<path d="M20 26.4615C19.0945 26.4615 18.2415 26.3125 17.441 26.0144C16.6406 25.7163 15.9148 25.3006 15.2635 24.7673L13.5269 26.4788C13.3906 26.6173 13.2171 26.6865 13.0064 26.6865C12.7957 26.6865 12.6212 26.6173 12.4827 26.4788C12.3442 26.3404 12.275 26.1658 12.275 25.9551C12.275 25.7444 12.3442 25.5709 12.4827 25.4346L14.1943 23.7231C13.6609 23.0718 13.2452 22.3418 12.9471 21.5331C12.6491 20.7245 12.5 19.8673 12.5 18.9615C12.5 16.8678 13.2266 15.0944 14.6797 13.6413C16.1328 12.1881 17.9063 11.4616 20 11.4616H27.5V18.9615C27.5 21.0553 26.7734 22.8287 25.3203 24.2818C23.8672 25.7349 22.0937 26.4615 20 26.4615ZM20 24.9615C21.6667 24.9615 23.0833 24.3782 24.25 23.2115C25.4167 22.0449 26 20.6282 26 18.9615V12.9615H20C18.3333 12.9615 16.9167 13.5449 15.75 14.7115C14.5833 15.8782 14 17.2949 14 18.9615C14 19.6564 14.1128 20.3173 14.3385 20.9442C14.5641 21.5712 14.8776 22.1359 15.2788 22.6385L20.4827 17.4346C20.619 17.2962 20.7925 17.227 21.0032 17.227C21.2139 17.227 21.3894 17.2972 21.5298 17.4376C21.683 17.5907 21.7596 17.768 21.7596 17.9692C21.7596 18.1705 21.682 18.3487 21.5269 18.5038L16.323 23.6981C16.8256 24.0994 17.3904 24.4103 18.0173 24.6308C18.6442 24.8513 19.3051 24.9615 20 24.9615Z" fill="#795900"/>
</g>
</svg>
