<svg width="58" height="71" viewBox="0 0 58 71" fill="none" xmlns="http://www.w3.org/2000/svg">
<path d="M24.4869 35.1853C23.347 30.9111 21.9736 26.6962 20.2816 22.6136C18.6703 18.7225 16.8885 14.7722 13.8142 11.8528C13.4821 11.5335 13.0512 12.0033 13.325 12.35C16.0448 15.8168 17.8176 20.3374 19.4109 24.4245C20.9638 28.4022 22.216 32.4985 23.2662 36.6405C25.3846 44.9973 26.3316 53.564 28.2166 61.9619C28.3512 62.5685 29.3566 62.4499 29.3027 61.8113C28.5711 52.8934 26.7893 43.8158 24.4869 35.1853Z" fill="#9BD4A0"/>
<path d="M38.8712 11.9759C33.9343 17.0529 33.0411 25.7655 32.1929 32.4665C31.0798 41.275 30.613 50.3023 31.0529 59.1701C31.0888 59.8817 32.1255 59.8908 32.148 59.1701C32.4218 50.8953 32.4352 42.6343 33.2969 34.3915C33.7143 30.4275 34.1901 26.4407 35.1057 22.5588C35.9853 18.8365 37.4709 15.5704 39.0507 12.1173C39.1046 12.0032 38.9654 11.8755 38.8712 11.9759Z" fill="#9BD4A0"/>
<path d="M50.9534 44.9061C50.702 46.5574 50.0378 50.5534 48.7497 55.0146C48.6061 55.5255 48.4535 56.0455 48.2874 56.5747C47.4841 59.1383 46.4787 61.784 45.2355 64.1743C45.0246 64.5802 44.8136 64.9771 44.5892 65.3603C43.53 67.1895 42.3227 68.818 40.9449 70.077C40.8372 70.1773 40.7115 70.2366 40.5724 70.2503C39.6074 70.3689 35.3482 70.8479 29.8682 70.971C29.5002 70.9802 29.1321 70.9847 28.7596 70.9893H28.7551C26.5021 71.0212 24.0785 70.9847 21.6056 70.8433H21.6011C21.1747 70.8114 20.7528 70.7886 20.3175 70.7566C18.8139 70.6426 17.297 70.4875 15.8069 70.2777C15.587 70.2457 15.3985 70.1089 15.2863 69.8991C14.8285 69.005 13.509 66.3912 12.0324 62.9198C11.8259 62.4409 11.6195 61.9391 11.4085 61.4236C10.9956 60.3973 10.5737 59.3116 10.1608 58.1849C9.94541 57.5919 9.73447 56.9943 9.52801 56.3831C8.25339 52.6334 7.17624 48.5782 6.82168 44.8514C6.78577 44.4317 7.06852 44.0577 7.4545 44.012C8.63937 43.8797 11.3053 43.6061 15.0529 43.3688H15.0574C15.6139 43.3369 16.2019 43.3004 16.8033 43.2685C18.3068 43.1864 19.9539 43.1134 21.7178 43.0541C21.9691 43.0495 22.2204 43.0404 22.4762 43.0359C30.115 42.8123 39.8991 42.9173 50.3295 44.0212C50.729 44.0622 51.0207 44.4728 50.9579 44.9107L50.9534 44.9061Z" fill="#E6715F"/>
<path d="M18.8588 50.5989C18.015 55.2244 14.1822 57.4459 10.1653 58.1757C9.94987 57.5873 9.73892 56.9897 9.53247 56.383C12.4542 55.9268 15.2234 54.9507 16.8346 51.8944C18.6389 48.4732 17.3553 45.4991 15.0618 43.3688C15.6184 43.3369 16.2063 43.3004 16.8077 43.2684C18.4818 45.1022 19.4198 47.57 18.8588 50.5989Z" fill="#FFDAD6"/>
<path d="M48.7543 55.0145C48.6107 55.5254 48.4581 56.0455 48.292 56.5746C47.7355 56.3465 47.0623 56.2097 46.2589 56.1869C42.4978 56.0728 38.297 57.9294 35.0251 59.7768C30.0478 62.5913 25.6898 66.5827 21.6101 70.8433H21.6056C21.1793 70.8113 20.7574 70.7885 20.322 70.7566C25.9771 64.4661 32.0674 58.6091 39.9217 55.904C42.4709 55.0237 46.0479 53.9334 48.7543 55.0191V55.0145Z" fill="#FFDAD6"/>
<path d="M45.2402 64.1741C45.0292 64.5801 44.8183 64.977 44.5939 65.3602C44.2976 64.8219 43.8578 64.352 43.234 63.978C40.6668 62.4271 37.7091 64.2791 35.5638 65.9486C33.589 67.4859 31.686 69.1736 29.8683 70.9709C29.5003 70.98 29.1323 70.9846 28.7598 70.9892C29.9401 69.7028 31.1609 68.4666 32.44 67.3034C34.6168 65.31 36.973 63.0885 39.814 62.4042C41.8471 61.9162 43.9925 62.3449 45.2402 64.1741Z" fill="#FFDAD6"/>
<path d="M21.0446 54.3258C19.0249 58.34 15.771 61.2229 12.0324 62.9153C11.826 62.4363 11.6195 61.9346 11.4086 61.4191C14.0566 60.2741 16.4577 58.527 18.3831 55.9908C20.5554 53.1307 22.7949 47.2326 21.7133 43.0541C21.9646 43.0496 22.216 43.0405 22.4718 43.0359C23.5175 46.6167 22.584 51.2604 21.0401 54.3304L21.0446 54.3258Z" fill="#FFDAD6"/>
<path d="M22.0993 10.5801C23.5669 10.1057 25.2724 10.1331 26.529 11.0363C27.5119 11.7388 28.1178 12.8883 28.4814 14.0332C29.1995 16.2958 28.9975 18.7773 27.9383 20.8939C25.4519 25.8751 19.6712 26.2127 15.7351 29.2918C14.0072 30.642 12.6652 32.494 10.7757 33.5888C9.26322 34.4646 7.50837 34.793 5.9465 35.5685C4.24101 36.4124 2.84521 37.7444 1.55712 39.1813C0.942243 39.8655 -0.152859 39.2953 0.0176893 38.383C0.291465 36.9324 1.04547 35.4043 0.973659 33.9081C0.915314 32.6673 0.273512 31.4859 0.358787 30.2406C0.439573 29.0591 1.16216 28.0328 1.47184 26.8924C1.77255 25.7885 1.68278 24.6207 1.72766 23.4803C1.81743 21.1995 2.45474 18.978 3.19977 16.8249C4.70329 12.496 6.90696 6.76207 11.3188 4.68655C12.7774 3.99775 14.4694 3.66475 15.5735 5.11533C17.2072 7.26384 14.7477 9.75447 15.6408 11.976C16.7808 14.8042 20.6361 11.05 22.0948 10.5801H22.0993Z" fill="#006E2F"/>
<path d="M19.42 20.1229C18.2217 18.0155 17.2388 15.949 16.3636 13.6819C16.4982 13.2349 16.0045 12.6647 15.5602 13.0023C14.8242 13.5588 14.308 14.2111 13.8682 14.909C13.8502 14.9136 13.8368 14.909 13.8188 14.9227C12.809 15.3697 11.6466 15.128 10.5964 15.4108C9.33968 15.7529 8.18623 15.9262 6.88916 16.0448C5.5921 16.1634 4.39826 16.501 3.73402 17.7053C3.63976 17.874 3.86417 18.0611 4.0033 17.9151C5.61903 16.2227 7.76435 16.8066 9.80196 16.3824C10.8791 16.1589 12.1851 16.241 13.2847 15.9308C12.8853 16.688 12.5083 17.4726 12.0146 18.239C11.3997 19.1969 10.5021 19.9313 9.89621 20.8984C9.3307 21.8016 8.9537 22.8188 8.59465 23.8178C8.3119 24.6024 8.05159 25.3915 7.74191 26.1579C6.41791 27.0656 4.82912 26.7509 3.38394 27.3393C2.44592 27.7225 1.63357 28.3703 1.15783 29.2826C1.07705 29.4331 1.27004 29.5973 1.3957 29.4696C2.62096 28.206 3.68016 27.613 5.44848 27.426C6.08579 27.3576 6.73657 27.3028 7.33349 27.0885C7.20782 27.3485 7.07767 27.6039 6.92956 27.8502C6.13067 29.2142 5.07148 30.3865 4.14243 31.65C3.01592 33.1827 1.94774 34.8432 2.01058 36.8229C2.01058 36.9415 2.17664 36.9643 2.21254 36.8503C3.52756 32.9775 6.4224 30.1903 8.19521 26.6095C8.26253 26.5456 8.29843 26.4635 8.30292 26.3814C8.48694 25.9937 8.66646 25.5968 8.81906 25.1863C8.99858 24.7073 9.17362 24.2192 9.36212 23.7357C9.52818 24.2146 9.69424 24.6982 9.784 25.1817C9.91416 25.8979 9.79747 26.6323 9.87825 27.353C10.0757 29.0682 11.0317 30.3454 10.2687 32.1427C10.2059 32.2932 10.3944 32.4118 10.4886 32.275C11.3459 31.0434 10.924 29.7387 10.6053 28.3794C10.3854 27.4397 10.4662 26.5684 10.3719 25.6287C10.2822 24.7529 9.94558 23.8588 9.65834 23.0241C9.83786 22.6181 10.0353 22.2212 10.2732 21.8426C10.8791 20.8573 11.7363 20.1731 12.4679 19.3064C13.1052 18.5492 13.4867 17.687 13.94 16.8112C14.4113 15.9034 15.0127 15.1781 15.6859 14.4665C16.1706 15.8533 16.7002 17.2263 17.4677 18.4807C17.8896 19.1695 18.4012 19.7899 18.85 20.465C19.788 21.87 19.7297 23.4301 19.5143 25.0449C19.4918 25.2136 19.7297 25.2912 19.7701 25.1178C20.2234 23.3251 20.358 21.7788 19.42 20.1229Z" fill="#41A259"/>
<path d="M26.0982 14.5304C25.7975 14.2156 25.3622 14.2841 25.057 14.5304C24.8012 14.7357 24.6935 15.2009 24.7159 15.5203C24.7383 15.8669 24.8775 16.1498 25.0929 16.4143C25.3038 16.6789 25.7212 16.6196 25.9412 16.4143C26.4349 15.9536 26.5964 15.0504 26.1027 14.5304H26.0982Z" fill="#41A259"/>
<path d="M26.8163 18.5219C26.5605 18.2026 26.0892 18.2938 25.82 18.5219C25.5686 18.7363 25.4385 19.1605 25.3981 19.4844C25.3442 19.904 25.6584 20.5381 26.1476 20.5153C26.574 20.497 26.9555 20.1732 27.0542 19.7535C27.1529 19.3156 27.0946 18.8685 26.8118 18.5219H26.8163Z" fill="#41A259"/>
<path d="M24.0964 18.1341C23.9259 17.8833 23.6476 17.7099 23.3334 17.8011C23.0462 17.8833 22.8667 18.1068 22.732 18.3668C22.6557 18.5127 22.6109 18.6587 22.5884 18.8229C22.5705 18.8959 22.5705 18.9643 22.5884 19.0373C22.5884 19.0556 22.5884 19.0693 22.5929 19.0829C22.5929 19.1103 22.5929 19.1514 22.5929 19.1559C22.6064 19.5528 22.9879 19.9086 23.3918 19.7763C23.5713 19.717 23.7778 19.6395 23.9124 19.4981C24.1054 19.2973 24.2131 19.0282 24.2266 18.7545C24.2356 18.5447 24.2131 18.3166 24.0919 18.1433L24.0964 18.1341Z" fill="#41A259"/>
<path d="M23.908 22.057C23.8765 21.8153 23.7823 21.6054 23.5444 21.5051C23.3425 21.423 23.0462 21.4412 22.8981 21.6283C22.8308 21.7149 22.7455 21.7788 22.6737 21.8609C22.5705 21.9749 22.5077 22.0753 22.4538 22.2213C22.4538 22.2304 22.4448 22.2395 22.4359 22.2532C22.1711 22.7504 22.6064 23.3069 23.1405 23.1838C23.6656 23.0652 23.9843 22.5999 23.9124 22.057H23.908Z" fill="#41A259"/>
<path d="M5.8298 20.3966C5.81185 20.1184 5.69516 19.8766 5.4528 19.7306C5.23288 19.5983 4.90525 19.5755 4.68533 19.7306C4.23203 20.0545 4.01211 20.57 4.05699 21.1265C4.08392 21.4503 4.26794 21.7788 4.60455 21.8563C4.95013 21.9339 5.24635 21.7925 5.44382 21.5096C5.565 21.3363 5.65028 21.1858 5.72209 20.9805C5.75799 20.8847 5.78492 20.8072 5.79839 20.7022C5.81634 20.5608 5.81634 20.5517 5.79839 20.6749C5.82531 20.5836 5.83429 20.4878 5.82083 20.3966H5.8298Z" fill="#41A259"/>
<path d="M6.51205 23.9729C6.39536 23.6491 5.98245 23.4803 5.72214 23.7631C5.76702 23.7449 5.75356 23.754 5.68623 23.7996C5.6234 23.8407 5.57852 23.8908 5.54261 23.9593C5.50671 24.014 5.46183 24.0779 5.4349 24.1372C5.35411 24.2968 5.31372 24.4747 5.26435 24.6435C5.14766 25.0358 5.43041 25.4372 5.82088 25.492C6.25174 25.5513 6.53 25.2319 6.57937 24.826C6.59732 24.68 6.62874 24.5249 6.6063 24.3789C6.58835 24.2284 6.54347 24.0733 6.50756 23.9775L6.51205 23.9729Z" fill="#41A259"/>
<path d="M10.5963 10.0965C10.4437 9.72706 9.93208 9.67688 9.63137 9.8411C9.22295 10.0601 9.04792 10.5299 9.03894 10.9769C9.03894 11.2871 9.23642 11.5699 9.51019 11.6885C9.76602 11.798 10.161 11.7707 10.3495 11.5289C10.4976 11.3373 10.6412 11.1457 10.6906 10.8994C10.7534 10.6074 10.7085 10.3702 10.5918 10.0965H10.5963Z" fill="#41A259"/>
<path d="M15.6184 21.6419C15.3132 21.4001 14.9811 21.3955 14.6266 21.5552C14.3573 21.6738 14.2047 21.9749 14.1329 22.2486C14.1149 22.3079 14.1015 22.3717 14.0925 22.4356C14.0925 22.4356 14.0925 22.4401 14.0925 22.4447C13.886 22.8507 13.9578 23.3342 14.3214 23.6216C14.649 23.877 15.2145 23.8999 15.4973 23.5486C15.7531 23.2339 15.9685 22.8917 15.982 22.4675C15.9909 22.1391 15.8787 21.8426 15.6184 21.6373V21.6419Z" fill="#41A259"/>
<path d="M13.7694 26.6323C13.5091 26.5274 13.2622 26.6323 13.1051 26.8558C12.9884 27.0201 12.8852 27.1752 12.8044 27.3622C12.6832 27.6496 12.7191 27.9826 13.0109 28.1559C13.2802 28.3156 13.6302 28.2152 13.7918 27.9461C13.922 27.7317 13.9983 27.5082 14.079 27.271C14.1643 27.0201 14.0027 26.7281 13.7694 26.6323Z" fill="#41A259"/>
<path d="M43.5032 0.10671C46.6673 -0.513667 50.1232 1.6394 51.0163 4.7869C51.6087 6.87155 51.1779 9.17515 51.9049 11.2142C52.632 13.2395 54.4093 14.7357 55.1139 16.7656C55.6794 18.3941 55.4954 20.1777 55.648 21.902C55.7692 23.234 56.0924 24.5386 56.42 25.8386L57.7844 31.2852C57.9594 31.9831 57.1875 32.535 56.6085 32.1154C55.7154 31.4676 54.6921 31.0024 53.6194 30.7743C52.3268 30.496 50.9041 30.5188 49.8314 29.7342C49.0101 29.1321 48.5388 28.1514 47.7893 27.4534C44.9349 24.7849 39.4953 27.2117 36.8967 24.2831C36.2145 23.5122 35.833 22.4448 34.9668 21.8929C34.2217 21.4185 33.2747 21.4367 32.4489 21.1311C30.4382 20.3921 29.5855 18.0383 28.9706 15.9582C28.5263 14.4529 28.1134 12.7149 28.9617 11.4012C29.3207 10.8493 29.8638 10.4478 30.4338 10.1376C33.0997 8.6825 36.6408 9.0976 38.9118 11.1321C35.3258 7.91615 39.3337 0.923234 43.4897 0.111271L43.5032 0.10671Z" fill="#006E2F"/>
<path d="M52.273 26.0255C51.3933 25.168 50.8906 24.1188 50.3655 23.0833C51.8825 23.2658 53.4758 23.1152 54.8716 23.8132C54.9658 23.8588 55.0332 23.7356 54.9524 23.6763C53.4848 22.618 51.7209 22.7777 50.0334 22.4264C50.0334 22.4264 50.0289 22.4264 50.0244 22.4264C49.7147 21.8517 49.3736 21.2906 48.9293 20.7888C47.6322 19.32 45.7966 18.4351 44.4322 17.0118C44.2796 16.8567 44.1405 16.688 43.9924 16.5283C47.2912 16.6469 50.5675 16.9206 53.8303 17.5136C53.9964 17.5455 54.0727 17.2901 53.9022 17.2536C50.3969 16.4143 46.8603 15.8395 43.2563 15.7209C42.0894 14.3844 40.9853 12.9748 39.8498 11.6155C43.1262 10.3154 47.4258 7.79743 50.1321 11.1456C50.1725 11.1958 50.2443 11.132 50.2174 11.0772C47.933 6.67984 42.4574 9.73154 39.1003 10.9267C38.8939 10.9997 38.7996 11.173 38.7951 11.3463C38.7682 11.4011 38.7503 11.4558 38.7413 11.5197C36.4389 13.951 34.5269 17.1943 36.3715 20.4057C36.5107 20.6474 36.8563 20.4376 36.7396 20.1867C35.3617 17.2947 37.3814 14.4893 39.226 12.3271C40.2897 13.5952 41.3489 14.8725 42.4395 16.1178C42.426 16.1725 42.4215 16.2318 42.4395 16.3002C42.8704 17.5045 42.8703 18.7452 43.1172 19.9814C43.2025 20.4057 43.3102 20.8345 43.4852 21.2313C43.8039 21.9657 44.4816 22.4766 44.7778 23.2065C44.8406 23.3616 45.092 23.3068 45.0381 23.1335C44.8855 22.6636 44.6611 22.2759 44.4277 21.8426C43.9565 20.9622 43.8443 20.2414 43.75 19.2607C43.6827 18.5856 43.6244 17.9242 43.4852 17.2764C44.8676 18.7179 46.6538 19.4614 48.0811 20.8299C48.7004 21.4275 49.1223 22.1436 49.5083 22.8872C49.4724 24.0914 49.3781 25.3367 49.4724 26.5364C49.5352 27.3347 49.7462 27.8593 50.3655 28.3565C50.4328 28.4067 50.5226 28.3246 50.4598 28.2607C49.7551 27.5217 50.0424 26.2171 50.0648 25.3002C50.0738 24.8806 50.0828 24.4609 50.0917 24.0367C50.3835 24.5932 50.7021 25.136 51.1195 25.6241C52.3717 27.093 54.0009 28.1284 55.2172 29.6429C55.2441 29.6748 55.3024 29.6429 55.289 29.6018C54.6651 28.0874 53.4085 27.1386 52.2685 26.0255H52.273Z" fill="#41A259"/>
<path d="M32.9965 12.7332C32.8529 12.2998 32.3772 12.1903 32.0451 12.4777C31.8386 12.6511 31.7219 12.943 31.6052 13.1848C31.5289 13.3444 31.4437 13.5178 31.4212 13.6957C31.3943 13.8873 31.4302 14.0697 31.4616 14.2613C31.5379 14.7676 32.2919 14.9455 32.6061 14.5669C32.7003 14.4529 32.808 14.3388 32.8799 14.2066C32.9786 14.0104 33.001 13.7915 33.019 13.5725C33.0414 13.2988 33.0863 12.9977 33.001 12.7332H32.9965Z" fill="#41A259"/>
<path d="M34.6707 18.4808C34.6707 18.4808 34.6663 18.4716 34.6618 18.4671C34.6438 18.4306 34.6348 18.3758 34.6214 18.3439C34.563 18.1888 34.4867 18.0428 34.397 17.9014C34.2085 17.5958 33.8898 17.3404 33.5128 17.427C32.7364 17.6004 32.7902 18.6176 32.9742 19.206C33.1448 19.7443 33.7013 20.0408 34.2264 19.8173C34.774 19.5847 34.8996 18.9962 34.6707 18.4808Z" fill="#41A259"/>
<path d="M40.3661 17.833C40.3392 17.6323 40.3302 17.3038 40.2629 17.0758C40.0475 16.3003 39.0017 16.3505 38.7639 17.0758C38.6696 17.3677 38.6696 17.7053 38.6606 18.0109C38.6516 18.3941 38.7728 18.6723 38.9793 18.9825C39.3294 19.5025 40.0519 19.4022 40.2584 18.8137C40.3841 18.4579 40.42 18.2162 40.3661 17.833Z" fill="#41A259"/>
<path d="M42.6684 23.1107C42.6684 23.1107 42.6414 23.0925 42.6325 23.0879C42.5965 23.056 42.5696 23.024 42.5337 22.9921C42.435 22.9054 42.3183 22.837 42.2016 22.7686C42.0714 22.6956 41.9503 22.6363 41.8156 22.5953C41.5688 22.3581 41.1559 22.6317 41.1873 22.9556C41.1334 23.2476 41.2366 23.5349 41.4341 23.7813C41.6855 24.0915 41.9951 24.169 42.3721 24.2146C42.6145 24.242 42.8838 24.0093 42.9376 23.7767C42.996 23.5076 42.8928 23.2567 42.6684 23.1062V23.1107Z" fill="#41A259"/>
<path d="M46.2949 12.0216C46.2186 11.8802 46.1423 11.7524 46.0346 11.6338C45.6082 11.1549 44.7914 11.5335 44.8004 12.1538C44.8004 12.3181 44.8408 12.4686 44.8767 12.6283C44.9889 13.089 45.505 13.3171 45.9224 13.1392C46.3533 12.9521 46.5193 12.4367 46.2949 12.0216Z" fill="#41A259"/>
<path d="M50.3296 13.6044C50.177 13.2988 49.8808 13.0707 49.5307 13.0662C49.3467 13.0662 49.1178 13.1756 49.037 13.3535C48.9293 13.5907 48.9158 13.8234 49.0191 14.0652C49.1357 14.3434 49.3287 14.4666 49.6025 14.5669C49.8449 14.6536 50.1366 14.5259 50.2802 14.3297C50.4463 14.1153 50.4508 13.8416 50.3296 13.5999V13.6044Z" fill="#41A259"/>
<path d="M46.7885 3.724C46.7033 3.54154 46.5507 3.40013 46.3936 3.28153C46.2141 3.14012 45.9717 3.08082 45.7473 3.10818C45.5588 3.13555 45.3164 3.22222 45.2671 3.43206C45.2087 3.6647 45.1594 3.89734 45.2357 4.13454C45.2357 4.14823 45.2357 4.15279 45.2401 4.16191C45.2446 4.2349 45.2581 4.30332 45.285 4.37175C45.3075 4.44017 45.3389 4.50859 45.3703 4.57246C45.3703 4.58158 45.3748 4.58614 45.3793 4.59526C45.5094 4.97387 45.8415 5.22476 46.2455 5.17002C46.6135 5.11985 46.9546 4.78229 46.9322 4.38087C46.9187 4.15279 46.8873 3.93383 46.7885 3.724Z" fill="#41A259"/>
<path d="M43.7141 5.84968C43.593 5.7402 43.4763 5.63073 43.3506 5.52581C43.1486 5.35703 42.9153 5.27492 42.6729 5.17913C42.4261 5.08334 42.1209 5.03316 41.883 5.18825C41.8336 5.22931 41.7843 5.2658 41.7349 5.30229C41.8157 5.24299 41.8202 5.23843 41.7483 5.29317C41.6945 5.35703 41.6541 5.40721 41.6227 5.46651C41.6227 5.45739 41.6227 5.45283 41.6272 5.4437C41.6272 5.4437 41.6272 5.44826 41.6227 5.45282C41.4835 5.6809 41.497 5.97285 41.6227 6.20093C41.7349 6.4062 41.9189 6.5841 42.0894 6.74832C42.2779 6.93078 42.5068 7.02201 42.7402 7.13605C43.1082 7.31395 43.5212 7.26378 43.7815 6.92622C44.0148 6.62059 44.0193 6.12338 43.7186 5.84968H43.7141Z" fill="#41A259"/>
<path d="M53.8797 20.5563C53.7181 20.1458 53.5745 19.7581 53.1616 19.5482C52.9193 19.4251 52.6814 19.3977 52.4256 19.5072C52.2101 19.5984 51.9902 19.7991 51.9453 20.05C51.9005 20.3237 51.887 20.5746 51.9947 20.8346C52.0575 20.9897 52.1383 21.122 52.2236 21.2634C52.466 21.6511 52.9327 21.8199 53.3546 21.6374C53.7316 21.4778 54.0458 20.9806 53.8797 20.5518V20.5563Z" fill="#41A259"/>
<path d="M26.2464 27.1022C23.5041 28.2426 21.848 31.2259 21.4441 34.2046C21.2735 35.4408 21.2915 36.7317 21.7313 37.8995C23.0418 41.3754 27.4851 42.5478 29.3746 45.7363C30.9724 48.4276 30.4383 52.045 32.1168 54.6816C32.8574 55.8402 33.957 56.7024 34.9578 57.6375C36.4479 59.0288 37.7449 60.6345 38.8041 62.3861C39.244 63.1114 40.348 62.8286 40.4064 61.9801C40.4827 60.8945 40.6487 59.8225 40.9943 58.787C41.4297 57.4778 42.1343 56.269 42.5023 54.9416C43.3955 51.712 42.2241 48.1585 43.1935 44.9517C43.4897 43.971 43.9744 43.0632 44.2976 42.0916C45.1324 39.569 44.7958 36.8093 45.1907 34.1772C45.5587 31.7277 46.5596 29.2553 45.9627 26.8559C45.2984 24.201 42.4799 22.2943 39.8184 22.7277C36.9954 23.1884 34.8052 26.2401 35.3976 29.123C35.5009 29.6157 35.5233 30.1311 35.3976 30.6192C34.7244 33.3516 32.7496 28.6897 31.9867 28.0328C30.4517 26.7054 28.1134 26.3222 26.2508 27.0977L26.2464 27.1022Z" fill="#41A259"/>
<path d="M41.4746 32.9228C39.5043 32.0926 36.8383 31.5224 34.7065 31.5315C34.6032 31.5315 34.5269 31.5725 34.4641 31.6227C34.3833 31.6364 34.3025 31.682 34.2307 31.7596C33.3555 32.7084 32.1437 33.4975 30.9903 34.0723C30.0523 34.5376 29.0559 34.8158 28.2301 35.4955C26.8163 36.6541 26.2239 38.3146 26.2104 40.1209C26.2104 40.3125 26.4887 40.308 26.5022 40.1209C26.8074 35.4955 31.7174 35.4408 34.4372 32.8361C34.7244 34.0723 35.1059 35.2674 35.2271 36.5538C35.254 36.832 35.2675 37.1103 35.2809 37.3931C35.2585 37.4205 35.2316 37.4524 35.2181 37.4935C33.7415 41.2705 31.5334 44.9425 32.3143 49.121C32.3502 49.3126 32.6195 49.2259 32.597 49.0434C32.1572 45.791 33.9525 42.1326 35.3213 39.017C35.3258 39.4093 35.3303 39.8016 35.3483 40.1894C35.4201 42.1463 35.7881 43.9116 36.6902 45.645C37.3859 46.977 37.6776 48.3683 37.8122 49.7915C37.0448 50.6719 36.3805 51.7211 35.7028 52.6699C35.0431 53.5913 34.8007 54.5629 34.684 55.676C34.6616 55.8812 34.9578 55.8949 35.0206 55.7216C35.4515 54.5219 35.9183 53.564 36.7082 52.5741C37.1121 52.0632 37.534 51.5295 37.8885 50.9638C38.0142 53.9745 37.6956 57.0627 39.1048 59.9046C39.1766 60.0505 39.3741 59.9411 39.3472 59.7996C38.9522 57.6329 38.7144 55.6121 38.656 53.4955C38.9298 53.678 39.217 53.8285 39.5357 53.9289C39.7825 54.0064 40.0294 54.0338 40.2807 54.0657C40.7295 54.1159 41.0168 54.2299 41.3713 54.5173C41.4386 54.5721 41.5688 54.5675 41.5868 54.458C41.6675 53.9791 41.2816 53.6826 40.8687 53.5411C40.0698 53.2675 39.3606 53.2264 38.6874 52.6288C38.674 52.6151 38.656 52.6106 38.6425 52.6015C38.6425 52.232 38.647 51.8625 38.6605 51.4839C38.7233 49.454 38.5662 47.6202 37.6417 45.7956C36.9056 44.345 36.5915 42.8305 36.4254 41.2842C37.1974 41.7631 37.9379 42.2877 38.6874 42.8077C39.778 43.5649 41.0886 44.3587 41.5688 45.6861C41.6227 45.8321 41.8426 45.7773 41.8022 45.6222C41.1604 43.127 38.4406 41.4393 36.3267 40.1985C36.1427 37.571 36.21 34.8934 35.254 32.3662C38.2027 32.4392 42.9467 33.3972 43.9296 36.3257C43.961 36.4169 44.1181 36.4124 44.1091 36.3029C43.9789 34.6288 42.9601 33.5568 41.4656 32.9273L41.4746 32.9228Z" fill="#92C89E"/>
<path d="M26.0936 31.3263C25.5685 31.2031 25.1332 31.4221 24.8235 31.8509C24.6843 32.0425 24.6305 32.2934 24.5542 32.5214C24.5317 32.5899 24.5093 32.6537 24.4869 32.7222C24.4644 32.786 24.3388 33.0825 24.4689 32.7906C24.258 33.2787 24.2939 33.8078 24.7382 34.1545C25.1376 34.4647 25.748 34.4556 26.1071 34.0724C26.52 33.6253 26.9194 33.0688 26.9239 32.4302C26.9239 31.9467 26.5738 31.4358 26.0981 31.3263H26.0936Z" fill="#006E2F"/>
<path d="M31.0487 31.0023C30.941 30.7377 30.7929 30.5324 30.5057 30.4503C30.2544 30.3819 29.9267 30.4458 29.7517 30.651C29.6125 30.8153 29.5093 30.9977 29.4106 31.1848C29.3477 31.2942 29.3163 31.4174 29.3029 31.5406C29.3029 31.5497 29.3029 31.5634 29.2939 31.5816C29.2715 31.6592 29.2535 31.7321 29.2221 31.8051C29.1189 32.0697 29.2759 32.4118 29.4779 32.5669C29.7203 32.7585 30.003 32.7448 30.2723 32.6217C30.5595 32.4894 30.8513 32.275 30.9725 31.9739C31.0936 31.682 31.1654 31.2942 31.0443 30.9886L31.0487 31.0023Z" fill="#006E2F"/>
<path d="M30.7973 39.829C30.7031 39.5325 30.4652 39.3044 30.1555 39.2679C29.8234 39.2269 29.581 39.3774 29.3881 39.642C29.1906 39.9065 29.0918 40.2578 29.047 40.5862C29.0021 40.9375 29.047 41.234 29.1277 41.5761C29.2759 42.2193 30.1286 42.2603 30.4473 41.7494C30.6223 41.4757 30.7614 41.2248 30.8243 40.8964C30.8871 40.5497 30.9006 40.1666 30.7973 39.829Z" fill="#006E2F"/>
<path d="M34.0872 37.2289C33.957 36.5583 32.8843 36.5583 32.7542 37.2289C32.7093 37.4524 32.7093 37.644 32.7677 37.8629C32.9472 38.5152 33.8942 38.5198 34.0737 37.8629C34.1365 37.6394 34.132 37.4569 34.0872 37.2289Z" fill="#006E2F"/>
<path d="M40.8507 37.4524C40.8373 37.3886 40.8283 37.3247 40.8103 37.2654C40.8103 37.2517 40.8103 37.2426 40.8058 37.238C40.7969 37.1833 40.7924 37.1285 40.7834 37.0738C40.761 36.9552 40.7251 36.8229 40.6892 36.7089C40.559 36.2938 40.2224 35.8513 39.7332 35.9927C38.9567 36.2162 38.9747 37.3019 39.2215 37.9086C39.3068 38.123 39.4011 38.2963 39.6075 38.4195C39.787 38.529 40.0563 38.5746 40.2583 38.5061C40.7071 38.3602 40.954 37.9177 40.8462 37.4524H40.8507Z" fill="#006E2F"/>
<path d="M43.5211 29.383C43.4133 28.7626 43.2159 27.9689 42.6414 27.6359C42.2375 27.3987 41.6899 27.6131 41.5687 28.0784C41.4879 28.3977 41.5553 28.7124 41.6136 29.0317C41.6361 29.1458 41.6585 29.2644 41.6809 29.3784C41.6854 29.4195 41.6899 29.4468 41.6944 29.4605C41.6989 29.5153 41.7079 29.5746 41.7079 29.6293C41.7527 30.1858 42.1701 30.6283 42.7491 30.5462C43.3281 30.4686 43.6108 29.9349 43.5121 29.3784L43.5211 29.383Z" fill="#006E2F"/>
<path d="M35.2856 48.1858C35.1105 47.789 34.5899 47.8255 34.3206 48.0581C33.9975 48.3364 33.8269 48.8473 33.7013 49.2487C33.5621 49.7048 33.5801 50.1747 33.7147 50.6354C33.8404 51.0733 34.4328 51.2786 34.756 50.9137C35.3708 50.2203 35.676 49.0662 35.2856 48.1813V48.1858Z" fill="#006E2F"/>
<path d="M41.3848 47.4924C41.1873 47.1595 40.8866 46.8401 40.5321 46.6942C40.2987 46.5984 39.9531 46.7991 39.9127 47.05C39.8633 47.3738 39.9306 47.7616 39.9935 48.0855C40.0294 48.2634 40.0787 48.4641 40.1685 48.6192C40.2583 48.7743 40.4064 48.9111 40.5186 49.0525C40.8013 49.4174 41.4476 49.203 41.5329 48.7788C41.5688 48.6009 41.6227 48.4002 41.6227 48.2177C41.6227 47.9714 41.506 47.6932 41.3803 47.4879L41.3848 47.4924Z" fill="#006E2F"/>
</svg>
