<svg width="39" height="39" viewBox="0 0 39 39" fill="none" xmlns="http://www.w3.org/2000/svg">
<rect width="39" height="39" rx="19.5" fill="#E0F7DE"/>
<path d="M24.9627 19.3292L18.7973 9.05359L13.0841 19.259C11.7538 21.4215 11.6377 24.2335 13.0351 26.5624C15.0215 29.8728 19.3016 30.9356 22.5959 28.9388C25.8891 26.9426 26.9491 22.6421 24.9627 19.3292Z" fill="#E0F7DE"/>
<mask id="mask0_1629_828" style="mask-type:alpha" maskUnits="userSpaceOnUse" x="7" y="7" width="24" height="24">
<rect x="7" y="7" width="24" height="24" fill="#D9D9D9"/>
</mask>
<g mask="url(#mask0_1629_828)">
<path d="M15.7615 27H22.2192C22.3025 27 22.3731 26.976 22.4308 26.9279C22.4885 26.8798 22.5301 26.8205 22.5558 26.75L23.6327 22.4519H14.348L15.425 26.75C15.4506 26.8205 15.4923 26.8798 15.55 26.9279C15.6077 26.976 15.6782 27 15.7615 27ZM15.7615 28.5C15.3333 28.5 14.957 28.3711 14.6327 28.1134C14.3083 27.8557 14.091 27.5211 13.9808 27.1096L12.8077 22.4519H25.173L24 27.1096C23.8897 27.5147 23.6724 27.8477 23.348 28.1086C23.0237 28.3695 22.6474 28.5 22.2192 28.5H15.7615ZM12.3462 20.9519H25.6538C25.7564 20.9519 25.8397 20.9199 25.9038 20.8557C25.9679 20.7916 26 20.7115 26 20.6153V18.7596H12V20.6153C12 20.7115 12.0336 20.7916 12.101 20.8557C12.1683 20.9199 12.25 20.9519 12.3462 20.9519ZM18.9904 15.0577C18.9904 13.5449 19.54 12.258 20.6394 11.1971C21.7388 10.1363 23.048 9.57376 24.5673 9.50964C24.4967 10.8878 24.0089 12.0853 23.1038 13.1019C22.1987 14.1186 21.0775 14.7468 19.7404 14.9865V17.2596H27.5V20.6153C27.5 21.1205 27.3185 21.5529 26.9557 21.9125C26.5929 22.2721 26.1589 22.4519 25.6538 22.4519H12.3462C11.841 22.4519 11.4071 22.2721 11.0442 21.9125C10.6814 21.5529 10.5 21.1205 10.5 20.6153V17.2596H18.2404V14.9865C16.9032 14.7468 15.7821 14.1202 14.8769 13.1067C13.9718 12.0933 13.484 10.8943 13.4135 9.50964C14.9263 9.57376 16.234 10.1379 17.3365 11.2019C18.4391 12.266 18.9904 13.5513 18.9904 15.0577Z" fill="#1C5129"/>
</g>
</svg>
