<svg width="39" height="39" viewBox="0 0 39 39" fill="none" xmlns="http://www.w3.org/2000/svg">
<rect width="39" height="39" rx="19.5" fill="#CAE3F6"/>
<mask id="mask0_1629_768" style="mask-type:alpha" maskUnits="userSpaceOnUse" x="7" y="7" width="24" height="24">
<rect x="7" y="7" width="24" height="24" fill="#D9D9D9"/>
</mask>
<g mask="url(#mask0_1629_768)">
<path d="M19 28C16.9219 28 15.1523 27.2823 13.6914 25.847C12.2305 24.4117 11.5 22.6644 11.5 20.6051C11.5 19.6222 11.6946 18.6821 12.0837 17.7846C12.4728 16.8872 13.0103 16.091 13.6961 15.3962L19 10.1924L24.3038 15.3962C24.9897 16.091 25.5272 16.8873 25.9163 17.785C26.3054 18.6827 26.5 19.6233 26.5 20.6069C26.5 22.6677 25.7695 24.415 24.3086 25.849C22.8476 27.283 21.0781 28 19 28ZM19 26.5C20.6666 26.5 22.0833 25.9308 23.25 24.7923C24.4166 23.6539 25 22.2589 25 20.6074C25 19.8234 24.85 19.0769 24.55 18.3679C24.25 17.6589 23.8166 17.0376 23.25 16.5038L19 12.3L14.75 16.5038C14.1833 17.0376 13.75 17.6589 13.45 18.3679C13.15 19.0769 13 19.8234 13 20.6074C13 22.2589 13.5833 23.6539 14.75 24.7923C15.9166 25.9308 17.3333 26.5 19 26.5Z" fill="#006874"/>
</g>
</svg>
